<?xml version="1.0" encoding="UTF-8" standalone="no"?>
<!DOCTYPE svg PUBLIC "-//W3C//DTD SVG 1.1//EN" "http://www.w3.org/Graphics/SVG/1.1/DTD/svg11.dtd">
<svg width="100%" height="100%" viewBox="0 0 335 331" version="1.1" xmlns="http://www.w3.org/2000/svg" xmlns:xlink="http://www.w3.org/1999/xlink" xml:space="preserve" xmlns:serif="http://www.serif.com/" style="fill-rule:evenodd;clip-rule:evenodd;stroke-linejoin:round;stroke-miterlimit:2;">
    <g id="Layer-1" serif:id="Layer 1" transform="matrix(1,0,0,1,-105,-119.25)">
        <path id="path3" d="M271.95,119.25C270.633,119.25 269.34,119.597 268.2,120.255L195.475,162.242C193.156,163.58 191.723,166.061 191.723,168.738L191.723,252.713C191.723,255.39 193.156,257.872 195.475,259.21L206.713,265.698L206.713,240.205L206.724,240.211L206.724,173.067L271.952,135.409L337.177,173.067L337.177,248.385L317.944,259.49L332.944,268.15L348.429,259.21C350.747,257.872 352.18,255.39 352.18,252.713L352.18,168.738C352.18,166.061 350.747,163.58 348.429,162.242L275.7,120.255C274.56,119.597 273.266,119.25 271.95,119.25ZM221.713,257.039L221.713,274.359L268.2,301.198C270.517,302.536 273.382,302.536 275.7,301.198L317.946,276.807L302.947,268.148L271.951,286.044L221.713,257.039Z" style="fill:white;fill-rule:nonzero;"/>
        <path id="path13" d="M185.225,267.275C183.909,267.276 182.616,267.622 181.477,268.28L108.751,310.267C106.433,311.605 105,314.087 105,316.764L105,400.739C105,403.416 106.433,405.897 108.751,407.235L181.477,449.224C183.794,450.561 186.658,450.561 188.975,449.224L261.703,407.235C264.022,405.897 265.455,403.416 265.455,400.739L265.455,387.797L242.366,401.127L242.366,401.08L185.228,434.07L119.999,396.41L119.999,321.092L185.228,283.434L206.713,295.838L206.713,278.521L188.975,268.28C187.835,267.622 186.542,267.275 185.225,267.275ZM221.713,287.18L221.713,304.499L250.453,321.092L250.453,379.138L265.455,370.477L265.455,316.764C265.455,314.087 264.022,311.605 261.703,310.267L221.713,287.18Z" style="fill:rgb(180,220,245);fill-rule:nonzero;"/>
        <path id="path15" d="M359.457,267.208C358.14,267.208 356.847,267.555 355.707,268.213L344.38,274.752L359.379,283.412L359.458,283.367L424.683,321.025L424.683,396.343L359.458,434.002L294.23,396.343L294.23,371.186L279.231,379.844L279.231,400.671C279.231,403.348 280.664,405.83 282.983,407.168L355.707,449.156C358.024,450.494 360.889,450.494 363.207,449.156L435.935,407.168C438.253,405.83 439.686,403.348 439.686,400.671L439.686,316.696C439.686,314.019 438.253,311.538 435.935,310.2L363.207,268.213C362.066,267.555 360.773,267.208 359.457,267.208ZM329.383,283.411L282.983,310.2C280.664,311.538 279.231,314.019 279.231,316.696L279.231,362.522L294.23,353.862L294.23,321.025L344.382,292.071L329.383,283.411Z" style="fill:rgb(134,198,121);fill-rule:nonzero;"/>
    </g>
</svg>
