<?xml version="1.0" encoding="UTF-8" standalone="no"?>
<!DOCTYPE svg PUBLIC "-//W3C//DTD SVG 1.1//EN" "http://www.w3.org/Graphics/SVG/1.1/DTD/svg11.dtd">
<svg width="100%" height="100%" viewBox="0 0 886 348" version="1.1" xmlns="http://www.w3.org/2000/svg" xmlns:xlink="http://www.w3.org/1999/xlink" xml:space="preserve" xmlns:serif="http://www.serif.com/" style="fill-rule:evenodd;clip-rule:evenodd;stroke-linejoin:round;stroke-miterlimit:2;">
    <g id="Layer-1" serif:id="Layer 1" transform="matrix(1,0,0,1,32.2619,-132.117)">
        <g id="text47-8">
            <g transform="matrix(1,0,0,1,396.113,215.46)">
                <g transform="matrix(72,0,0,72,0,0)">
                    <path d="M0.72,-0.358C0.72,-0.244 0.691,-0.154 0.634,-0.088C0.576,-0.023 0.495,0.01 0.391,0.01C0.286,0.01 0.205,-0.022 0.147,-0.087C0.09,-0.151 0.061,-0.242 0.061,-0.359C0.061,-0.475 0.09,-0.565 0.147,-0.629C0.204,-0.693 0.286,-0.725 0.392,-0.725C0.496,-0.725 0.576,-0.693 0.634,-0.628C0.691,-0.563 0.72,-0.473 0.72,-0.358ZM0.156,-0.358C0.156,-0.264 0.176,-0.192 0.216,-0.142C0.256,-0.093 0.314,-0.068 0.391,-0.068C0.468,-0.068 0.526,-0.092 0.565,-0.141C0.605,-0.19 0.625,-0.262 0.625,-0.358C0.625,-0.453 0.605,-0.525 0.566,-0.573C0.527,-0.622 0.469,-0.646 0.392,-0.646C0.315,-0.646 0.256,-0.622 0.216,-0.573C0.176,-0.524 0.156,-0.452 0.156,-0.358Z" style="fill:white;fill-rule:nonzero;"/>
                </g>
                <g transform="matrix(72,0,0,72,56.2148,0)">
                    <path d="M0.335,-0.546C0.359,-0.546 0.38,-0.544 0.398,-0.54L0.387,-0.459C0.367,-0.464 0.348,-0.466 0.329,-0.466C0.301,-0.466 0.274,-0.458 0.25,-0.442C0.226,-0.427 0.207,-0.405 0.193,-0.378C0.18,-0.35 0.173,-0.32 0.173,-0.286L0.173,-0L0.085,-0L0.085,-0.536L0.157,-0.536L0.167,-0.438L0.171,-0.438C0.191,-0.473 0.216,-0.5 0.244,-0.519C0.272,-0.537 0.302,-0.546 0.335,-0.546Z" style="fill:white;fill-rule:nonzero;"/>
                </g>
                <g transform="matrix(72,0,0,72,85.2539,0)">
                    <path d="M0.313,0.01C0.233,0.01 0.17,-0.015 0.124,-0.063C0.078,-0.112 0.055,-0.179 0.055,-0.264C0.055,-0.35 0.076,-0.419 0.119,-0.469C0.162,-0.52 0.219,-0.546 0.292,-0.546C0.359,-0.546 0.413,-0.524 0.453,-0.481C0.493,-0.437 0.513,-0.378 0.513,-0.304L0.513,-0.251L0.146,-0.251C0.148,-0.19 0.163,-0.144 0.192,-0.112C0.222,-0.081 0.263,-0.065 0.317,-0.065C0.346,-0.065 0.373,-0.067 0.398,-0.073C0.424,-0.078 0.454,-0.087 0.489,-0.102L0.489,-0.025C0.459,-0.012 0.431,-0.003 0.405,0.002C0.379,0.007 0.348,0.01 0.313,0.01ZM0.291,-0.474C0.249,-0.474 0.216,-0.461 0.191,-0.434C0.167,-0.407 0.153,-0.369 0.148,-0.321L0.421,-0.321C0.42,-0.371 0.409,-0.409 0.386,-0.435C0.364,-0.461 0.332,-0.474 0.291,-0.474Z" style="fill:white;fill-rule:nonzero;"/>
                </g>
                <g transform="matrix(72,0,0,72,125.859,0)">
                    <path d="M0.289,-0.062C0.343,-0.062 0.382,-0.077 0.407,-0.106C0.432,-0.135 0.444,-0.182 0.444,-0.246L0.444,-0.267C0.444,-0.339 0.431,-0.391 0.407,-0.423C0.382,-0.456 0.342,-0.472 0.287,-0.472C0.242,-0.472 0.207,-0.454 0.183,-0.419C0.158,-0.383 0.146,-0.332 0.146,-0.266C0.146,-0.2 0.158,-0.149 0.182,-0.114C0.206,-0.079 0.242,-0.062 0.289,-0.062ZM0.443,-0.005L0.446,-0.071L0.442,-0.071C0.406,-0.017 0.35,0.01 0.276,0.01C0.207,0.01 0.152,-0.014 0.114,-0.063C0.075,-0.111 0.055,-0.179 0.055,-0.267C0.055,-0.353 0.075,-0.421 0.114,-0.471C0.153,-0.521 0.207,-0.546 0.275,-0.546C0.347,-0.546 0.403,-0.519 0.443,-0.465L0.448,-0.465L0.46,-0.536L0.53,-0.536L0.53,0.009C0.53,0.086 0.51,0.143 0.471,0.182C0.433,0.221 0.372,0.24 0.29,0.24C0.212,0.24 0.148,0.229 0.097,0.206L0.097,0.125C0.149,0.153 0.215,0.167 0.295,0.167C0.34,0.167 0.377,0.154 0.403,0.127C0.43,0.1 0.443,0.063 0.443,0.016L0.443,-0.005Z" style="fill:white;fill-rule:nonzero;"/>
                </g>
                <g transform="matrix(72,0,0,72,170.156,0)">
                    <path d="M0.551,-0.269C0.551,-0.181 0.529,-0.113 0.484,-0.064C0.44,-0.015 0.379,0.01 0.301,0.01C0.252,0.01 0.209,-0.002 0.172,-0.024C0.134,-0.047 0.106,-0.079 0.085,-0.122C0.065,-0.164 0.055,-0.213 0.055,-0.269C0.055,-0.356 0.077,-0.424 0.121,-0.473C0.164,-0.522 0.225,-0.546 0.304,-0.546C0.38,-0.546 0.44,-0.521 0.484,-0.471C0.529,-0.422 0.551,-0.354 0.551,-0.269ZM0.146,-0.269C0.146,-0.202 0.159,-0.15 0.186,-0.115C0.212,-0.08 0.251,-0.063 0.303,-0.063C0.354,-0.063 0.393,-0.08 0.42,-0.115C0.447,-0.15 0.46,-0.202 0.46,-0.269C0.46,-0.336 0.447,-0.387 0.42,-0.421C0.393,-0.455 0.354,-0.472 0.302,-0.472C0.198,-0.472 0.146,-0.404 0.146,-0.269Z" style="fill:white;fill-rule:nonzero;"/>
                </g>
                <g transform="matrix(72,0,0,72,213.715,0)">
                    <path d="M0.45,-0L0.45,-0.343C0.45,-0.386 0.441,-0.419 0.421,-0.44C0.402,-0.462 0.371,-0.472 0.33,-0.472C0.275,-0.472 0.235,-0.457 0.21,-0.427C0.185,-0.396 0.173,-0.347 0.173,-0.278L0.173,-0L0.085,-0L0.085,-0.536L0.156,-0.536L0.169,-0.463L0.174,-0.463C0.19,-0.489 0.214,-0.51 0.244,-0.524C0.274,-0.539 0.307,-0.546 0.343,-0.546C0.409,-0.546 0.457,-0.53 0.489,-0.498C0.521,-0.466 0.537,-0.417 0.537,-0.349L0.537,-0L0.45,-0Z" style="fill:white;fill-rule:nonzero;"/>
                </g>
            </g>
            <g transform="matrix(1,0,0,1,396,287.46)">
                <g transform="matrix(72,0,0,72,0,0)">
                    <path d="M0.496,-0L0.097,-0L0.097,-0.714L0.496,-0.714L0.496,-0.635L0.187,-0.635L0.187,-0.412L0.478,-0.412L0.478,-0.334L0.187,-0.334L0.187,-0.079L0.496,-0.079L0.496,-0Z" style="fill:white;fill-rule:nonzero;"/>
                </g>
                <g transform="matrix(72,0,0,72,40.043,0)">
                    <path d="M0.45,-0L0.45,-0.343C0.45,-0.386 0.441,-0.419 0.421,-0.44C0.402,-0.462 0.371,-0.472 0.33,-0.472C0.275,-0.472 0.235,-0.457 0.21,-0.427C0.185,-0.396 0.173,-0.347 0.173,-0.278L0.173,-0L0.085,-0L0.085,-0.536L0.156,-0.536L0.169,-0.463L0.174,-0.463C0.19,-0.489 0.214,-0.51 0.244,-0.524C0.274,-0.539 0.307,-0.546 0.343,-0.546C0.409,-0.546 0.457,-0.53 0.489,-0.498C0.521,-0.466 0.537,-0.417 0.537,-0.349L0.537,-0L0.45,-0Z" style="fill:white;fill-rule:nonzero;"/>
                </g>
                <g transform="matrix(72,0,0,72,84.5508,0)">
                    <path d="M0.264,-0.062C0.276,-0.062 0.289,-0.063 0.304,-0.065C0.319,-0.068 0.331,-0.07 0.339,-0.073L0.339,-0.006C0.331,-0.002 0.318,0.001 0.301,0.005C0.284,0.008 0.267,0.01 0.249,0.01C0.144,0.01 0.092,-0.045 0.092,-0.156L0.092,-0.468L0.016,-0.468L0.016,-0.51L0.093,-0.545L0.128,-0.659L0.18,-0.659L0.18,-0.536L0.335,-0.536L0.335,-0.468L0.18,-0.468L0.18,-0.158C0.18,-0.127 0.188,-0.104 0.202,-0.087C0.217,-0.07 0.238,-0.062 0.264,-0.062Z" style="fill:white;fill-rule:nonzero;"/>
                </g>
                <g transform="matrix(72,0,0,72,110.531,0)">
                    <path d="M0.313,0.01C0.233,0.01 0.17,-0.015 0.124,-0.063C0.078,-0.112 0.055,-0.179 0.055,-0.264C0.055,-0.35 0.076,-0.419 0.119,-0.469C0.162,-0.52 0.219,-0.546 0.292,-0.546C0.359,-0.546 0.413,-0.524 0.453,-0.481C0.493,-0.437 0.513,-0.378 0.513,-0.304L0.513,-0.251L0.146,-0.251C0.148,-0.19 0.163,-0.144 0.192,-0.112C0.222,-0.081 0.263,-0.065 0.317,-0.065C0.346,-0.065 0.373,-0.067 0.398,-0.073C0.424,-0.078 0.454,-0.087 0.489,-0.102L0.489,-0.025C0.459,-0.012 0.431,-0.003 0.405,0.002C0.379,0.007 0.348,0.01 0.313,0.01ZM0.291,-0.474C0.249,-0.474 0.216,-0.461 0.191,-0.434C0.167,-0.407 0.153,-0.369 0.148,-0.321L0.421,-0.321C0.42,-0.371 0.409,-0.409 0.386,-0.435C0.364,-0.461 0.332,-0.474 0.291,-0.474Z" style="fill:white;fill-rule:nonzero;"/>
                </g>
                <g transform="matrix(72,0,0,72,151.137,0)">
                    <path d="M0.335,-0.546C0.359,-0.546 0.38,-0.544 0.398,-0.54L0.387,-0.459C0.367,-0.464 0.348,-0.466 0.329,-0.466C0.301,-0.466 0.274,-0.458 0.25,-0.442C0.226,-0.427 0.207,-0.405 0.193,-0.378C0.18,-0.35 0.173,-0.32 0.173,-0.286L0.173,-0L0.085,-0L0.085,-0.536L0.157,-0.536L0.167,-0.438L0.171,-0.438C0.191,-0.473 0.216,-0.5 0.244,-0.519C0.272,-0.537 0.302,-0.546 0.335,-0.546Z" style="fill:white;fill-rule:nonzero;"/>
                </g>
                <g transform="matrix(72,0,0,72,180.879,0)">
                    <path d="M0.339,0.01C0.267,0.01 0.212,-0.016 0.173,-0.068L0.167,-0.068L0.169,-0.048C0.172,-0.022 0.173,0 0.173,0.02L0.173,0.24L0.085,0.24L0.085,-0.536L0.157,-0.536L0.169,-0.463L0.173,-0.463C0.194,-0.492 0.218,-0.513 0.245,-0.526C0.272,-0.539 0.304,-0.546 0.34,-0.546C0.41,-0.546 0.464,-0.522 0.502,-0.473C0.541,-0.425 0.56,-0.357 0.56,-0.269C0.56,-0.181 0.541,-0.113 0.502,-0.064C0.463,-0.015 0.409,0.01 0.339,0.01ZM0.324,-0.472C0.271,-0.472 0.233,-0.457 0.209,-0.427C0.186,-0.397 0.174,-0.35 0.173,-0.286L0.173,-0.269C0.173,-0.196 0.185,-0.144 0.209,-0.112C0.233,-0.079 0.272,-0.063 0.326,-0.063C0.371,-0.063 0.406,-0.081 0.431,-0.118C0.457,-0.154 0.469,-0.205 0.469,-0.27C0.469,-0.335 0.457,-0.385 0.431,-0.42C0.406,-0.455 0.37,-0.472 0.324,-0.472Z" style="fill:white;fill-rule:nonzero;"/>
                </g>
                <g transform="matrix(72,0,0,72,225.176,0)">
                    <path d="M0.335,-0.546C0.359,-0.546 0.38,-0.544 0.398,-0.54L0.387,-0.459C0.367,-0.464 0.348,-0.466 0.329,-0.466C0.301,-0.466 0.274,-0.458 0.25,-0.442C0.226,-0.427 0.207,-0.405 0.193,-0.378C0.18,-0.35 0.173,-0.32 0.173,-0.286L0.173,-0L0.085,-0L0.085,-0.536L0.157,-0.536L0.167,-0.438L0.171,-0.438C0.191,-0.473 0.216,-0.5 0.244,-0.519C0.272,-0.537 0.302,-0.546 0.335,-0.546Z" style="fill:white;fill-rule:nonzero;"/>
                </g>
                <g transform="matrix(72,0,0,72,254.918,0)">
                    <path d="M0.173,-0L0.085,-0L0.085,-0.536L0.173,-0.536L0.173,-0ZM0.078,-0.681C0.078,-0.701 0.083,-0.715 0.093,-0.724C0.103,-0.732 0.115,-0.737 0.13,-0.737C0.144,-0.737 0.156,-0.732 0.166,-0.724C0.176,-0.715 0.181,-0.701 0.181,-0.681C0.181,-0.662 0.176,-0.648 0.166,-0.639C0.156,-0.63 0.144,-0.625 0.13,-0.625C0.115,-0.625 0.103,-0.63 0.093,-0.639C0.083,-0.648 0.078,-0.662 0.078,-0.681Z" style="fill:white;fill-rule:nonzero;"/>
                </g>
                <g transform="matrix(72,0,0,72,273.48,0)">
                    <path d="M0.434,-0.148C0.434,-0.098 0.415,-0.059 0.378,-0.031C0.34,-0.004 0.288,0.01 0.22,0.01C0.15,0.01 0.093,-0.001 0.052,-0.024L0.052,-0.104C0.111,-0.075 0.167,-0.061 0.222,-0.061C0.266,-0.061 0.299,-0.068 0.319,-0.083C0.339,-0.097 0.349,-0.116 0.349,-0.14C0.349,-0.161 0.339,-0.179 0.32,-0.194C0.301,-0.208 0.266,-0.225 0.217,-0.244C0.166,-0.264 0.131,-0.28 0.11,-0.294C0.09,-0.308 0.075,-0.324 0.065,-0.341C0.056,-0.358 0.051,-0.379 0.051,-0.404C0.051,-0.448 0.069,-0.482 0.104,-0.508C0.14,-0.533 0.189,-0.546 0.252,-0.546C0.313,-0.546 0.37,-0.534 0.423,-0.51L0.393,-0.44C0.339,-0.463 0.29,-0.474 0.246,-0.474C0.21,-0.474 0.182,-0.468 0.163,-0.457C0.144,-0.445 0.135,-0.429 0.135,-0.409C0.135,-0.39 0.143,-0.373 0.159,-0.361C0.175,-0.348 0.213,-0.33 0.273,-0.307C0.318,-0.291 0.351,-0.275 0.372,-0.261C0.393,-0.246 0.409,-0.23 0.419,-0.212C0.429,-0.194 0.434,-0.173 0.434,-0.148Z" style="fill:white;fill-rule:nonzero;"/>
                </g>
                <g transform="matrix(72,0,0,72,307.969,0)">
                    <path d="M0.313,0.01C0.233,0.01 0.17,-0.015 0.124,-0.063C0.078,-0.112 0.055,-0.179 0.055,-0.264C0.055,-0.35 0.076,-0.419 0.119,-0.469C0.162,-0.52 0.219,-0.546 0.292,-0.546C0.359,-0.546 0.413,-0.524 0.453,-0.481C0.493,-0.437 0.513,-0.378 0.513,-0.304L0.513,-0.251L0.146,-0.251C0.148,-0.19 0.163,-0.144 0.192,-0.112C0.222,-0.081 0.263,-0.065 0.317,-0.065C0.346,-0.065 0.373,-0.067 0.398,-0.073C0.424,-0.078 0.454,-0.087 0.489,-0.102L0.489,-0.025C0.459,-0.012 0.431,-0.003 0.405,0.002C0.379,0.007 0.348,0.01 0.313,0.01ZM0.291,-0.474C0.249,-0.474 0.216,-0.461 0.191,-0.434C0.167,-0.407 0.153,-0.369 0.148,-0.321L0.421,-0.321C0.42,-0.371 0.409,-0.409 0.386,-0.435C0.364,-0.461 0.332,-0.474 0.291,-0.474Z" style="fill:white;fill-rule:nonzero;"/>
                </g>
            </g>
            <g transform="matrix(1,0,0,1,396,359.46)">
                <g transform="matrix(72,0,0,72,0,0)">
                    <path d="M0.669,-0.364C0.669,-0.246 0.637,-0.156 0.573,-0.094C0.508,-0.031 0.416,-0 0.296,-0L0.097,-0L0.097,-0.714L0.317,-0.714C0.428,-0.714 0.514,-0.683 0.576,-0.622C0.638,-0.561 0.669,-0.475 0.669,-0.364ZM0.574,-0.361C0.574,-0.452 0.552,-0.52 0.507,-0.567C0.462,-0.614 0.395,-0.637 0.304,-0.637L0.187,-0.637L0.187,-0.077L0.284,-0.077C0.478,-0.077 0.574,-0.172 0.574,-0.361Z" style="fill:white;fill-rule:nonzero;"/>
                </g>
                <g transform="matrix(72,0,0,72,52.5586,0)">
                    <path d="M0.416,-0L0.399,-0.076L0.395,-0.076C0.368,-0.043 0.342,-0.02 0.315,-0.008C0.289,0.004 0.255,0.01 0.215,0.01C0.162,0.01 0.121,-0.004 0.091,-0.032C0.061,-0.059 0.046,-0.098 0.046,-0.149C0.046,-0.258 0.132,-0.315 0.303,-0.32L0.394,-0.323L0.394,-0.355C0.394,-0.396 0.385,-0.426 0.368,-0.445C0.35,-0.464 0.322,-0.474 0.283,-0.474C0.255,-0.474 0.228,-0.47 0.203,-0.461C0.178,-0.453 0.154,-0.444 0.132,-0.433L0.105,-0.499C0.132,-0.513 0.161,-0.525 0.193,-0.533C0.225,-0.541 0.257,-0.545 0.288,-0.545C0.353,-0.545 0.401,-0.531 0.433,-0.502C0.464,-0.473 0.48,-0.428 0.48,-0.365L0.48,-0L0.416,-0ZM0.235,-0.061C0.284,-0.061 0.323,-0.074 0.351,-0.101C0.379,-0.127 0.393,-0.165 0.393,-0.214L0.393,-0.262L0.314,-0.259C0.252,-0.257 0.208,-0.247 0.179,-0.229C0.151,-0.212 0.137,-0.185 0.137,-0.148C0.137,-0.12 0.146,-0.098 0.163,-0.083C0.18,-0.069 0.204,-0.061 0.235,-0.061Z" style="fill:white;fill-rule:nonzero;"/>
                </g>
                <g transform="matrix(72,0,0,72,92.9531,0)">
                    <path d="M0.264,-0.062C0.276,-0.062 0.289,-0.063 0.304,-0.065C0.319,-0.068 0.331,-0.07 0.339,-0.073L0.339,-0.006C0.331,-0.002 0.318,0.001 0.301,0.005C0.284,0.008 0.267,0.01 0.249,0.01C0.144,0.01 0.092,-0.045 0.092,-0.156L0.092,-0.468L0.016,-0.468L0.016,-0.51L0.093,-0.545L0.128,-0.659L0.18,-0.659L0.18,-0.536L0.335,-0.536L0.335,-0.468L0.18,-0.468L0.18,-0.158C0.18,-0.127 0.188,-0.104 0.202,-0.087C0.217,-0.07 0.238,-0.062 0.264,-0.062Z" style="fill:white;fill-rule:nonzero;"/>
                </g>
                <g transform="matrix(72,0,0,72,118.934,0)">
                    <path d="M0.416,-0L0.399,-0.076L0.395,-0.076C0.368,-0.043 0.342,-0.02 0.315,-0.008C0.289,0.004 0.255,0.01 0.215,0.01C0.162,0.01 0.121,-0.004 0.091,-0.032C0.061,-0.059 0.046,-0.098 0.046,-0.149C0.046,-0.258 0.132,-0.315 0.303,-0.32L0.394,-0.323L0.394,-0.355C0.394,-0.396 0.385,-0.426 0.368,-0.445C0.35,-0.464 0.322,-0.474 0.283,-0.474C0.255,-0.474 0.228,-0.47 0.203,-0.461C0.178,-0.453 0.154,-0.444 0.132,-0.433L0.105,-0.499C0.132,-0.513 0.161,-0.525 0.193,-0.533C0.225,-0.541 0.257,-0.545 0.288,-0.545C0.353,-0.545 0.401,-0.531 0.433,-0.502C0.464,-0.473 0.48,-0.428 0.48,-0.365L0.48,-0L0.416,-0ZM0.235,-0.061C0.284,-0.061 0.323,-0.074 0.351,-0.101C0.379,-0.127 0.393,-0.165 0.393,-0.214L0.393,-0.262L0.314,-0.259C0.252,-0.257 0.208,-0.247 0.179,-0.229C0.151,-0.212 0.137,-0.185 0.137,-0.148C0.137,-0.12 0.146,-0.098 0.163,-0.083C0.18,-0.069 0.204,-0.061 0.235,-0.061Z" style="fill:white;fill-rule:nonzero;"/>
                </g>
            </g>
            <g transform="matrix(1,0,0,1,396,431.46)">
                <g transform="matrix(72,0,0,72,0,0)">
                    <path d="M0.545,-0L0.459,-0.221L0.176,-0.221L0.091,-0L0,-0L0.279,-0.717L0.36,-0.717L0.638,-0L0.545,-0ZM0.432,-0.301L0.352,-0.517L0.318,-0.624C0.308,-0.585 0.298,-0.549 0.287,-0.517L0.206,-0.301L0.432,-0.301Z" style="fill:white;fill-rule:nonzero;"/>
                </g>
                <g transform="matrix(72,0,0,72,46.0195,0)">
                    <path d="M0.45,-0L0.45,-0.343C0.45,-0.386 0.441,-0.419 0.421,-0.44C0.402,-0.462 0.371,-0.472 0.33,-0.472C0.275,-0.472 0.235,-0.457 0.21,-0.427C0.185,-0.396 0.173,-0.347 0.173,-0.278L0.173,-0L0.085,-0L0.085,-0.536L0.156,-0.536L0.169,-0.463L0.174,-0.463C0.19,-0.489 0.214,-0.51 0.244,-0.524C0.274,-0.539 0.307,-0.546 0.343,-0.546C0.409,-0.546 0.457,-0.53 0.489,-0.498C0.521,-0.466 0.537,-0.417 0.537,-0.349L0.537,-0L0.45,-0Z" style="fill:white;fill-rule:nonzero;"/>
                </g>
                <g transform="matrix(72,0,0,72,90.5273,0)">
                    <path d="M0.416,-0L0.399,-0.076L0.395,-0.076C0.368,-0.043 0.342,-0.02 0.315,-0.008C0.289,0.004 0.255,0.01 0.215,0.01C0.162,0.01 0.121,-0.004 0.091,-0.032C0.061,-0.059 0.046,-0.098 0.046,-0.149C0.046,-0.258 0.132,-0.315 0.303,-0.32L0.394,-0.323L0.394,-0.355C0.394,-0.396 0.385,-0.426 0.368,-0.445C0.35,-0.464 0.322,-0.474 0.283,-0.474C0.255,-0.474 0.228,-0.47 0.203,-0.461C0.178,-0.453 0.154,-0.444 0.132,-0.433L0.105,-0.499C0.132,-0.513 0.161,-0.525 0.193,-0.533C0.225,-0.541 0.257,-0.545 0.288,-0.545C0.353,-0.545 0.401,-0.531 0.433,-0.502C0.464,-0.473 0.48,-0.428 0.48,-0.365L0.48,-0L0.416,-0ZM0.235,-0.061C0.284,-0.061 0.323,-0.074 0.351,-0.101C0.379,-0.127 0.393,-0.165 0.393,-0.214L0.393,-0.262L0.314,-0.259C0.252,-0.257 0.208,-0.247 0.179,-0.229C0.151,-0.212 0.137,-0.185 0.137,-0.148C0.137,-0.12 0.146,-0.098 0.163,-0.083C0.18,-0.069 0.204,-0.061 0.235,-0.061Z" style="fill:white;fill-rule:nonzero;"/>
                </g>
                <g transform="matrix(72,0,0,72,130.922,0)">
                    <rect x="0.085" y="-0.76" width="0.088" height="0.76" style="fill:white;fill-rule:nonzero;"/>
                </g>
                <g transform="matrix(72,0,0,72,149.484,0)">
                    <path d="M0.001,-0.536L0.095,-0.536L0.211,-0.231C0.235,-0.165 0.25,-0.116 0.256,-0.085L0.26,-0.085C0.263,-0.097 0.269,-0.12 0.28,-0.153C0.29,-0.186 0.299,-0.212 0.306,-0.232L0.415,-0.536L0.51,-0.536L0.279,0.074C0.256,0.133 0.23,0.176 0.199,0.202C0.168,0.227 0.13,0.24 0.084,0.24C0.06,0.24 0.035,0.237 0.011,0.232L0.011,0.162C0.028,0.166 0.047,0.168 0.07,0.168C0.098,0.168 0.122,0.16 0.141,0.145C0.161,0.129 0.177,0.105 0.189,0.073L0.217,0.002L0.001,-0.536Z" style="fill:white;fill-rule:nonzero;"/>
                </g>
                <g transform="matrix(72,0,0,72,186.187,0)">
                    <path d="M0.264,-0.062C0.276,-0.062 0.289,-0.063 0.304,-0.065C0.319,-0.068 0.331,-0.07 0.339,-0.073L0.339,-0.006C0.331,-0.002 0.318,0.001 0.301,0.005C0.284,0.008 0.267,0.01 0.249,0.01C0.144,0.01 0.092,-0.045 0.092,-0.156L0.092,-0.468L0.016,-0.468L0.016,-0.51L0.093,-0.545L0.128,-0.659L0.18,-0.659L0.18,-0.536L0.335,-0.536L0.335,-0.468L0.18,-0.468L0.18,-0.158C0.18,-0.127 0.188,-0.104 0.202,-0.087C0.217,-0.07 0.238,-0.062 0.264,-0.062Z" style="fill:white;fill-rule:nonzero;"/>
                </g>
                <g transform="matrix(72,0,0,72,212.168,0)">
                    <path d="M0.173,-0L0.085,-0L0.085,-0.536L0.173,-0.536L0.173,-0ZM0.078,-0.681C0.078,-0.701 0.083,-0.715 0.093,-0.724C0.103,-0.732 0.115,-0.737 0.13,-0.737C0.144,-0.737 0.156,-0.732 0.166,-0.724C0.176,-0.715 0.181,-0.701 0.181,-0.681C0.181,-0.662 0.176,-0.648 0.166,-0.639C0.156,-0.63 0.144,-0.625 0.13,-0.625C0.115,-0.625 0.103,-0.63 0.093,-0.639C0.083,-0.648 0.078,-0.662 0.078,-0.681Z" style="fill:white;fill-rule:nonzero;"/>
                </g>
                <g transform="matrix(72,0,0,72,230.73,0)">
                    <path d="M0.3,0.01C0.223,0.01 0.163,-0.014 0.12,-0.061C0.077,-0.109 0.055,-0.177 0.055,-0.265C0.055,-0.355 0.077,-0.424 0.12,-0.473C0.164,-0.522 0.226,-0.546 0.306,-0.546C0.332,-0.546 0.358,-0.543 0.384,-0.538C0.409,-0.532 0.43,-0.526 0.447,-0.517L0.42,-0.444C0.375,-0.461 0.336,-0.469 0.304,-0.469C0.25,-0.469 0.21,-0.452 0.185,-0.418C0.159,-0.384 0.146,-0.333 0.146,-0.266C0.146,-0.201 0.159,-0.152 0.185,-0.117C0.21,-0.083 0.248,-0.066 0.299,-0.066C0.346,-0.066 0.392,-0.076 0.438,-0.097L0.438,-0.019C0.401,0 0.355,0.01 0.3,0.01Z" style="fill:white;fill-rule:nonzero;"/>
                </g>
                <g transform="matrix(72,0,0,72,265.289,0)">
                    <path d="M0.434,-0.148C0.434,-0.098 0.415,-0.059 0.378,-0.031C0.34,-0.004 0.288,0.01 0.22,0.01C0.15,0.01 0.093,-0.001 0.052,-0.024L0.052,-0.104C0.111,-0.075 0.167,-0.061 0.222,-0.061C0.266,-0.061 0.299,-0.068 0.319,-0.083C0.339,-0.097 0.349,-0.116 0.349,-0.14C0.349,-0.161 0.339,-0.179 0.32,-0.194C0.301,-0.208 0.266,-0.225 0.217,-0.244C0.166,-0.264 0.131,-0.28 0.11,-0.294C0.09,-0.308 0.075,-0.324 0.065,-0.341C0.056,-0.358 0.051,-0.379 0.051,-0.404C0.051,-0.448 0.069,-0.482 0.104,-0.508C0.14,-0.533 0.189,-0.546 0.252,-0.546C0.313,-0.546 0.37,-0.534 0.423,-0.51L0.393,-0.44C0.339,-0.463 0.29,-0.474 0.246,-0.474C0.21,-0.474 0.182,-0.468 0.163,-0.457C0.144,-0.445 0.135,-0.429 0.135,-0.409C0.135,-0.39 0.143,-0.373 0.159,-0.361C0.175,-0.348 0.213,-0.33 0.273,-0.307C0.318,-0.291 0.351,-0.275 0.372,-0.261C0.393,-0.246 0.409,-0.23 0.419,-0.212C0.429,-0.194 0.434,-0.173 0.434,-0.148Z" style="fill:white;fill-rule:nonzero;"/>
                </g>
            </g>
        </g>
        <path id="path3" d="M211.163,140.511C209.846,140.511 208.553,140.858 207.413,141.516L134.688,183.503C132.369,184.841 130.936,187.322 130.936,189.999L130.936,273.974C130.936,276.651 132.369,279.133 134.688,280.471L145.926,286.959L145.926,261.466L145.937,261.472L145.937,194.328L211.165,156.67L276.391,194.328L276.391,269.646L257.157,280.751L272.157,289.411L287.642,280.471C289.961,279.133 291.394,276.651 291.393,273.974L291.393,189.999C291.394,187.322 289.961,184.841 287.642,183.503L214.913,141.516C213.773,140.858 212.479,140.511 211.163,140.511ZM160.926,278.3L160.926,295.62L207.413,322.459C209.731,323.797 212.595,323.797 214.913,322.459L257.159,298.068L242.16,289.409L211.164,307.305L160.926,278.3Z" style="fill:white;fill-rule:nonzero;"/>
        <path id="path13" d="M124.438,288.536C123.122,288.537 121.829,288.883 120.69,289.541L47.965,331.528C45.646,332.866 44.213,335.348 44.213,338.025L44.213,422C44.213,424.677 45.646,427.158 47.965,428.496L120.69,470.485C123.007,471.822 125.871,471.822 128.188,470.485L200.916,428.496C203.235,427.158 204.668,424.677 204.668,422L204.668,409.058L181.579,422.388L181.579,422.341L124.441,455.331L59.212,417.671L59.212,342.353L124.441,304.695L145.926,317.099L145.926,299.782L128.188,289.541C127.048,288.883 125.755,288.536 124.438,288.536ZM160.926,308.441L160.926,325.76L189.666,342.353L189.666,400.399L204.668,391.738L204.668,338.025C204.668,335.348 203.235,332.866 200.916,331.528L160.926,308.441Z" style="fill:rgb(180,220,245);fill-rule:nonzero;"/>
        <path id="path15" d="M298.67,288.469C297.353,288.469 296.06,288.816 294.92,289.474L283.594,296.013L298.592,304.673L298.671,304.628L363.896,342.286L363.896,417.604L298.671,455.264L233.443,417.604L233.443,392.447L218.445,401.105L218.445,421.932C218.445,424.609 219.878,427.091 222.196,428.429L294.92,470.417C297.237,471.755 300.102,471.755 302.42,470.417L375.148,428.429C377.466,427.091 378.899,424.609 378.899,421.932L378.899,337.957C378.899,335.28 377.466,332.799 375.148,331.461L302.42,289.474C301.28,288.816 299.986,288.469 298.67,288.469L298.67,288.469ZM268.597,304.672L222.196,331.461C219.878,332.799 218.445,335.28 218.445,337.957L218.445,383.784L233.443,375.123L233.443,342.286L283.595,313.332L268.597,304.672Z" style="fill:rgb(134,198,121);fill-rule:nonzero;"/>
    </g>
</svg>
