<?xml version="1.0" encoding="UTF-8" standalone="no"?>
<!-- Created with Inkscape (http://www.inkscape.org/) -->

<svg
   width="118.0698mm"
   height="116.76164mm"
   viewBox="0 0 118.0698 116.76164"
   version="1.1"
   id="svg1"
   inkscape:version="1.4.2 (f4327f4, 2025-05-13)"
   sodipodi:docname="OEDA Icon.svg"
   xmlns:inkscape="http://www.inkscape.org/namespaces/inkscape"
   xmlns:sodipodi="http://sodipodi.sourceforge.net/DTD/sodipodi-0.dtd"
   xmlns="http://www.w3.org/2000/svg"
   xmlns:svg="http://www.w3.org/2000/svg">
  <sodipodi:namedview
     id="namedview1"
     pagecolor="#ffffff"
     bordercolor="#000000"
     borderopacity="0.25"
     inkscape:showpageshadow="2"
     inkscape:pageopacity="0.0"
     inkscape:pagecheckerboard="0"
     inkscape:deskcolor="#d1d1d1"
     inkscape:document-units="mm"
     inkscape:zoom="1.0467522"
     inkscape:cx="256.03002"
     inkscape:cy="402.67408"
     inkscape:window-width="2560"
     inkscape:window-height="1377"
     inkscape:window-x="2552"
     inkscape:window-y="-7"
     inkscape:window-maximized="1"
     inkscape:current-layer="layer1" />
  <defs
     id="defs1" />
  <g
     inkscape:label="Layer 1"
     inkscape:groupmode="layer"
     id="layer1"
     transform="translate(-37.041668,-42.06875)">
    <path
       id="path3"
       style="baseline-shift:baseline;display:inline;overflow:visible;vector-effect:none;fill:#414042;stroke-width:0.651537;stroke-linejoin:round;enable-background:accumulate;stop-color:#000000"
       d="m 95.937817,42.06875 a 2.6460986,2.6460986 0 0 0 -1.32292,0.3545 l -25.6558,14.812016 a 2.6460986,2.6460986 0 0 0 -1.32343,2.29185 v 29.624548 a 2.6460986,2.6460986 0 0 0 1.32343,2.29185 l 3.96462,2.288749 v -8.99325 l 0.004,0.0021 V 61.054154 l 23.01099,-13.284977 23.009973,13.284977 v 26.570471 l -6.78512,3.917591 5.29167,3.05511 5.46272,-3.153812 a 2.6460986,2.6460986 0 0 0 1.32343,-2.29185 V 59.527116 a 2.6460986,2.6460986 0 0 0 -1.32343,-2.29185 L 97.260727,42.42325 a 2.6460986,2.6460986 0 0 0 -1.32291,-0.3545 z m -17.72244,48.608919 v 6.110221 l 16.39952,9.46816 a 2.6460986,2.6460986 0 0 0 2.64583,0 l 14.903493,-8.604646 -5.29115,-3.054594 -10.934743,6.31331 z" />
    <path
       id="path13"
       style="baseline-shift:baseline;display:inline;overflow:visible;vector-effect:none;fill:#2e3192;stroke-width:0.651537;stroke-linejoin:round;enable-background:accumulate;stop-color:#000000"
       d="m 65.343297,94.288818 a 2.6460986,2.6460986 0 0 0 -1.3224,0.3545 L 38.365101,109.45533 a 2.6460986,2.6460986 0 0 0 -1.323433,2.29185 v 29.62455 a 2.6460986,2.6460986 0 0 0 1.323433,2.29185 l 25.655796,14.81253 a 2.6460986,2.6460986 0 0 0 2.64532,0 l 25.65683,-14.81253 a 2.6460986,2.6460986 0 0 0 1.32343,-2.29185 v -4.56561 l -8.14524,4.70255 v -0.0165 l -20.1569,11.63805 -23.01152,-13.2855 v -26.5705 l 23.01152,-13.284975 7.57938,4.375965 v -6.109192 l -6.2575,-3.6127 a 2.6460986,2.6460986 0 0 0 -1.32292,-0.3545 z m 12.87208,7.021792 v 6.10971 l 10.13892,5.8539 v 20.4773 l 5.29218,-3.05562 v -18.94872 a 2.6460986,2.6460986 0 0 0 -1.32343,-2.29185 z" />
    <path
       id="path15"
       style="baseline-shift:baseline;display:inline;overflow:visible;vector-effect:none;fill:#86c679;stroke-width:0.651537;stroke-linejoin:round;enable-background:accumulate;stop-color:#000000"
       d="m 126.80828,94.265047 a 2.6460986,2.6460986 0 0 0 -1.32291,0.3545 l -3.99562,2.306836 5.29115,3.055111 0.0279,-0.01602 23.00997,13.284976 v 26.57047 l -23.00997,13.2855 -23.011,-13.2855 v -8.87491 l -5.291153,3.0546 v 7.34735 a 2.6460986,2.6460986 0 0 0 1.32344,2.29185 l 25.655283,14.81253 a 2.6460986,2.6460986 0 0 0 2.64583,0 l 25.65683,-14.81253 a 2.6460986,2.6460986 0 0 0 1.32344,-2.29185 v -29.62455 a 2.6460986,2.6460986 0 0 0 -1.32344,-2.29185 L 128.1312,94.619547 a 2.6460986,2.6460986 0 0 0 -1.32292,-0.3545 z m -10.60917,5.71593 -16.369023,9.450583 a 2.6460986,2.6460986 0 0 0 -1.32344,2.29185 v 16.16646 l 5.291153,-3.05511 v -11.58431 l 17.69246,-10.21436 z" />
  </g>
</svg>
