<?xml version="1.0" encoding="UTF-8" standalone="no"?>
<!DOCTYPE svg PUBLIC "-//W3C//DTD SVG 1.1//EN" "http://www.w3.org/Graphics/SVG/1.1/DTD/svg11.dtd">
<svg width="100%" height="100%" viewBox="0 0 336 418" version="1.1" xmlns="http://www.w3.org/2000/svg" xmlns:xlink="http://www.w3.org/1999/xlink" xml:space="preserve" xmlns:serif="http://www.serif.com/" style="fill-rule:evenodd;clip-rule:evenodd;stroke-linejoin:round;stroke-miterlimit:2;">
    <g transform="matrix(1,0,0,1,-73.91,-54.139)">
        <g id="Layer-1" serif:id="Layer 1" transform="matrix(1,0,0,1,-154.43,-12.393)">
            <g id="text47">
                <g transform="matrix(1,0,0,1,227.18,429.587)">
                    <g transform="matrix(20,0,0,20,0,0)">
                        <path d="M0.738,-0.358C0.738,-0.24 0.708,-0.149 0.65,-0.085C0.591,-0.022 0.507,0.01 0.398,0.01C0.289,0.01 0.205,-0.022 0.146,-0.085C0.087,-0.149 0.058,-0.24 0.058,-0.359C0.058,-0.478 0.087,-0.568 0.146,-0.631C0.205,-0.694 0.289,-0.725 0.399,-0.725C0.509,-0.725 0.593,-0.694 0.651,-0.63C0.709,-0.567 0.738,-0.476 0.738,-0.358ZM0.217,-0.358C0.217,-0.278 0.232,-0.218 0.262,-0.178C0.292,-0.137 0.338,-0.117 0.398,-0.117C0.519,-0.117 0.579,-0.197 0.579,-0.358C0.579,-0.519 0.519,-0.599 0.399,-0.599C0.339,-0.599 0.293,-0.579 0.263,-0.538C0.232,-0.498 0.217,-0.438 0.217,-0.358Z" style="fill:rgb(46,49,146);fill-rule:nonzero;"/>
                    </g>
                    <g transform="matrix(20,0,0,20,16.4778,0)">
                        <path d="M0.241,-0.397L0.29,-0.397C0.338,-0.397 0.373,-0.405 0.396,-0.421C0.419,-0.437 0.43,-0.462 0.43,-0.496C0.43,-0.53 0.419,-0.554 0.395,-0.568C0.372,-0.583 0.336,-0.59 0.287,-0.59L0.241,-0.59L0.241,-0.397ZM0.241,-0.274L0.241,-0L0.09,-0L0.09,-0.714L0.298,-0.714C0.395,-0.714 0.467,-0.696 0.513,-0.661C0.56,-0.626 0.583,-0.572 0.583,-0.5C0.583,-0.458 0.571,-0.421 0.548,-0.388C0.525,-0.355 0.493,-0.33 0.45,-0.311L0.66,-0L0.492,-0L0.322,-0.274L0.241,-0.274Z" style="fill:rgb(46,49,146);fill-rule:nonzero;"/>
                    </g>
                    <g transform="matrix(20,0,0,20,30.2408,0)">
                        <path d="M0.501,-0L0.09,-0L0.09,-0.714L0.501,-0.714L0.501,-0.59L0.241,-0.59L0.241,-0.433L0.483,-0.433L0.483,-0.309L0.241,-0.309L0.241,-0.125L0.501,-0.125L0.501,-0Z" style="fill:rgb(46,49,146);fill-rule:nonzero;"/>
                    </g>
                    <g transform="matrix(20,0,0,20,42.0019,0)">
                        <path d="M0.361,-0.401L0.644,-0.401L0.644,-0.031C0.598,-0.016 0.555,-0.005 0.514,0.001C0.474,0.007 0.432,0.01 0.39,0.01C0.282,0.01 0.2,-0.022 0.143,-0.085C0.087,-0.149 0.058,-0.239 0.058,-0.358C0.058,-0.473 0.091,-0.563 0.157,-0.627C0.223,-0.692 0.314,-0.724 0.431,-0.724C0.504,-0.724 0.575,-0.709 0.643,-0.68L0.593,-0.559C0.541,-0.585 0.486,-0.598 0.43,-0.598C0.365,-0.598 0.312,-0.576 0.273,-0.532C0.234,-0.488 0.214,-0.429 0.214,-0.355C0.214,-0.278 0.23,-0.218 0.261,-0.177C0.293,-0.137 0.339,-0.116 0.4,-0.116C0.431,-0.116 0.464,-0.119 0.496,-0.126L0.496,-0.275L0.361,-0.275L0.361,-0.401Z" style="fill:rgb(46,49,146);fill-rule:nonzero;"/>
                    </g>
                    <g transform="matrix(20,0,0,20,57.0442,0)">
                        <path d="M0.738,-0.358C0.738,-0.24 0.708,-0.149 0.65,-0.085C0.591,-0.022 0.507,0.01 0.398,0.01C0.289,0.01 0.205,-0.022 0.146,-0.085C0.087,-0.149 0.058,-0.24 0.058,-0.359C0.058,-0.478 0.087,-0.568 0.146,-0.631C0.205,-0.694 0.289,-0.725 0.399,-0.725C0.509,-0.725 0.593,-0.694 0.651,-0.63C0.709,-0.567 0.738,-0.476 0.738,-0.358ZM0.217,-0.358C0.217,-0.278 0.232,-0.218 0.262,-0.178C0.292,-0.137 0.338,-0.117 0.398,-0.117C0.519,-0.117 0.579,-0.197 0.579,-0.358C0.579,-0.519 0.519,-0.599 0.399,-0.599C0.339,-0.599 0.293,-0.579 0.263,-0.538C0.232,-0.498 0.217,-0.438 0.217,-0.358Z" style="fill:rgb(46,49,146);fill-rule:nonzero;"/>
                    </g>
                    <g transform="matrix(20,0,0,20,73.522,0)">
                        <path d="M0.723,-0L0.531,-0L0.22,-0.54L0.216,-0.54C0.222,-0.445 0.225,-0.377 0.225,-0.336L0.225,-0L0.09,-0L0.09,-0.714L0.281,-0.714L0.591,-0.179L0.594,-0.179C0.589,-0.272 0.587,-0.338 0.587,-0.376L0.587,-0.714L0.723,-0.714L0.723,-0Z" style="fill:rgb(46,49,146);fill-rule:nonzero;"/>
                    </g>
                    <g transform="matrix(20,0,0,20,96.0968,0)">
                        <path d="M0.501,-0L0.09,-0L0.09,-0.714L0.501,-0.714L0.501,-0.59L0.241,-0.59L0.241,-0.433L0.483,-0.433L0.483,-0.309L0.241,-0.309L0.241,-0.125L0.501,-0.125L0.501,-0Z" style="fill:rgb(46,49,146);fill-rule:nonzero;"/>
                    </g>
                    <g transform="matrix(20,0,0,20,107.858,0)">
                        <path d="M0.723,-0L0.531,-0L0.22,-0.54L0.216,-0.54C0.222,-0.445 0.225,-0.377 0.225,-0.336L0.225,-0L0.09,-0L0.09,-0.714L0.281,-0.714L0.591,-0.179L0.594,-0.179C0.589,-0.272 0.587,-0.338 0.587,-0.376L0.587,-0.714L0.723,-0.714L0.723,-0Z" style="fill:rgb(46,49,146);fill-rule:nonzero;"/>
                    </g>
                    <g transform="matrix(20,0,0,20,124.677,0)">
                        <path d="M0.365,-0L0.214,-0L0.214,-0.588L0.02,-0.588L0.02,-0.714L0.559,-0.714L0.559,-0.588L0.365,-0.588L0.365,-0Z" style="fill:rgb(46,49,146);fill-rule:nonzero;"/>
                    </g>
                    <g transform="matrix(20,0,0,20,136.819,0)">
                        <path d="M0.501,-0L0.09,-0L0.09,-0.714L0.501,-0.714L0.501,-0.59L0.241,-0.59L0.241,-0.433L0.483,-0.433L0.483,-0.309L0.241,-0.309L0.241,-0.125L0.501,-0.125L0.501,-0Z" style="fill:rgb(46,49,146);fill-rule:nonzero;"/>
                    </g>
                    <g transform="matrix(20,0,0,20,148.58,0)">
                        <path d="M0.241,-0.397L0.29,-0.397C0.338,-0.397 0.373,-0.405 0.396,-0.421C0.419,-0.437 0.43,-0.462 0.43,-0.496C0.43,-0.53 0.419,-0.554 0.395,-0.568C0.372,-0.583 0.336,-0.59 0.287,-0.59L0.241,-0.59L0.241,-0.397ZM0.241,-0.274L0.241,-0L0.09,-0L0.09,-0.714L0.298,-0.714C0.395,-0.714 0.467,-0.696 0.513,-0.661C0.56,-0.626 0.583,-0.572 0.583,-0.5C0.583,-0.458 0.571,-0.421 0.548,-0.388C0.525,-0.355 0.493,-0.33 0.45,-0.311L0.66,-0L0.492,-0L0.322,-0.274L0.241,-0.274Z" style="fill:rgb(46,49,146);fill-rule:nonzero;"/>
                    </g>
                    <g transform="matrix(20,0,0,20,162.343,0)">
                        <path d="M0.241,-0.378L0.291,-0.378C0.338,-0.378 0.372,-0.387 0.396,-0.406C0.419,-0.424 0.43,-0.451 0.43,-0.486C0.43,-0.521 0.42,-0.548 0.401,-0.564C0.382,-0.581 0.351,-0.59 0.31,-0.59L0.241,-0.59L0.241,-0.378ZM0.583,-0.491C0.583,-0.414 0.559,-0.356 0.511,-0.315C0.463,-0.274 0.395,-0.254 0.306,-0.254L0.241,-0.254L0.241,-0L0.09,-0L0.09,-0.714L0.318,-0.714C0.404,-0.714 0.47,-0.695 0.515,-0.658C0.56,-0.621 0.583,-0.565 0.583,-0.491Z" style="fill:rgb(46,49,146);fill-rule:nonzero;"/>
                    </g>
                    <g transform="matrix(20,0,0,20,175.462,0)">
                        <path d="M0.241,-0.397L0.29,-0.397C0.338,-0.397 0.373,-0.405 0.396,-0.421C0.419,-0.437 0.43,-0.462 0.43,-0.496C0.43,-0.53 0.419,-0.554 0.395,-0.568C0.372,-0.583 0.336,-0.59 0.287,-0.59L0.241,-0.59L0.241,-0.397ZM0.241,-0.274L0.241,-0L0.09,-0L0.09,-0.714L0.298,-0.714C0.395,-0.714 0.467,-0.696 0.513,-0.661C0.56,-0.626 0.583,-0.572 0.583,-0.5C0.583,-0.458 0.571,-0.421 0.548,-0.388C0.525,-0.355 0.493,-0.33 0.45,-0.311L0.66,-0L0.492,-0L0.322,-0.274L0.241,-0.274Z" style="fill:rgb(46,49,146);fill-rule:nonzero;"/>
                    </g>
                    <g transform="matrix(20,0,0,20,189.225,0)">
                        <path d="M0.357,-0L0.032,-0L0.032,-0.086L0.119,-0.126L0.119,-0.588L0.032,-0.628L0.032,-0.714L0.357,-0.714L0.357,-0.628L0.27,-0.588L0.27,-0.126L0.357,-0.086L0.357,-0Z" style="fill:rgb(46,49,146);fill-rule:nonzero;"/>
                    </g>
                    <g transform="matrix(20,0,0,20,197.568,0)">
                        <path d="M0.511,-0.198C0.511,-0.134 0.488,-0.083 0.442,-0.046C0.395,-0.009 0.331,0.01 0.248,0.01C0.172,0.01 0.104,-0.005 0.046,-0.033L0.046,-0.174C0.094,-0.152 0.135,-0.137 0.168,-0.128C0.202,-0.12 0.232,-0.115 0.26,-0.115C0.293,-0.115 0.318,-0.122 0.336,-0.134C0.354,-0.147 0.363,-0.166 0.363,-0.191C0.363,-0.205 0.359,-0.217 0.351,-0.228C0.343,-0.239 0.332,-0.25 0.317,-0.26C0.302,-0.27 0.271,-0.286 0.224,-0.308C0.181,-0.329 0.148,-0.348 0.126,-0.367C0.104,-0.386 0.087,-0.408 0.074,-0.433C0.061,-0.458 0.054,-0.487 0.054,-0.521C0.054,-0.584 0.076,-0.634 0.118,-0.67C0.161,-0.706 0.22,-0.724 0.296,-0.724C0.333,-0.724 0.368,-0.72 0.402,-0.711C0.436,-0.702 0.471,-0.69 0.508,-0.674L0.459,-0.556C0.421,-0.572 0.389,-0.583 0.365,-0.589C0.34,-0.595 0.315,-0.598 0.291,-0.598C0.262,-0.598 0.24,-0.591 0.225,-0.578C0.21,-0.565 0.202,-0.547 0.202,-0.526C0.202,-0.513 0.205,-0.501 0.211,-0.491C0.218,-0.481 0.227,-0.471 0.241,-0.462C0.254,-0.453 0.286,-0.436 0.337,-0.412C0.404,-0.38 0.449,-0.348 0.474,-0.316C0.499,-0.284 0.511,-0.245 0.511,-0.198Z" style="fill:rgb(46,49,146);fill-rule:nonzero;"/>
                    </g>
                    <g transform="matrix(20,0,0,20,209.143,0)">
                        <path d="M0.501,-0L0.09,-0L0.09,-0.714L0.501,-0.714L0.501,-0.59L0.241,-0.59L0.241,-0.433L0.483,-0.433L0.483,-0.309L0.241,-0.309L0.241,-0.125L0.501,-0.125L0.501,-0Z" style="fill:rgb(46,49,146);fill-rule:nonzero;"/>
                    </g>
                </g>
                <g transform="matrix(1,0,0,1,227.18,472.787)">
                    <g transform="matrix(46.0001,0,0,46.0001,0,0)">
                        <path d="M0.682,-0.364C0.682,-0.246 0.649,-0.156 0.582,-0.094C0.515,-0.031 0.418,-0 0.292,-0L0.09,-0L0.09,-0.714L0.314,-0.714C0.431,-0.714 0.521,-0.683 0.585,-0.622C0.65,-0.56 0.682,-0.474 0.682,-0.364ZM0.525,-0.36C0.525,-0.513 0.457,-0.59 0.322,-0.59L0.241,-0.59L0.241,-0.125L0.306,-0.125C0.452,-0.125 0.525,-0.203 0.525,-0.36Z" style="fill:rgb(46,49,146);fill-rule:nonzero;"/>
                    </g>
                    <g transform="matrix(46.0001,0,0,46.0001,34.0508,0)">
                        <path d="M0.425,-0L0.396,-0.074L0.392,-0.074C0.367,-0.043 0.341,-0.021 0.315,-0.009C0.288,0.004 0.254,0.01 0.211,0.01C0.159,0.01 0.117,-0.005 0.087,-0.035C0.057,-0.065 0.042,-0.108 0.042,-0.163C0.042,-0.221 0.062,-0.264 0.103,-0.291C0.143,-0.319 0.204,-0.334 0.286,-0.337L0.381,-0.34L0.381,-0.364C0.381,-0.419 0.353,-0.447 0.296,-0.447C0.252,-0.447 0.201,-0.434 0.142,-0.407L0.093,-0.508C0.156,-0.541 0.225,-0.557 0.302,-0.557C0.375,-0.557 0.431,-0.541 0.47,-0.509C0.509,-0.477 0.529,-0.429 0.529,-0.364L0.529,-0L0.425,-0ZM0.381,-0.253L0.323,-0.251C0.28,-0.25 0.248,-0.242 0.227,-0.228C0.205,-0.213 0.195,-0.191 0.195,-0.162C0.195,-0.12 0.219,-0.099 0.267,-0.099C0.302,-0.099 0.329,-0.109 0.35,-0.129C0.371,-0.149 0.381,-0.175 0.381,-0.208L0.381,-0.253Z" style="fill:rgb(46,49,146);fill-rule:nonzero;"/>
                    </g>
                    <g transform="matrix(46.0001,0,0,46.0001,61.835,0)">
                        <path d="M0.308,-0.109C0.334,-0.109 0.365,-0.115 0.402,-0.126L0.402,-0.015C0.365,0.001 0.319,0.01 0.265,0.01C0.206,0.01 0.162,-0.005 0.135,-0.035C0.108,-0.066 0.094,-0.111 0.094,-0.171L0.094,-0.434L0.023,-0.434L0.023,-0.497L0.105,-0.547L0.148,-0.662L0.243,-0.662L0.243,-0.546L0.396,-0.546L0.396,-0.434L0.243,-0.434L0.243,-0.171C0.243,-0.15 0.249,-0.134 0.261,-0.124C0.273,-0.114 0.289,-0.109 0.308,-0.109Z" style="fill:rgb(46,49,146);fill-rule:nonzero;"/>
                    </g>
                    <g transform="matrix(46.0001,0,0,46.0001,81.8028,0)">
                        <path d="M0.425,-0L0.396,-0.074L0.392,-0.074C0.367,-0.043 0.341,-0.021 0.315,-0.009C0.288,0.004 0.254,0.01 0.211,0.01C0.159,0.01 0.117,-0.005 0.087,-0.035C0.057,-0.065 0.042,-0.108 0.042,-0.163C0.042,-0.221 0.062,-0.264 0.103,-0.291C0.143,-0.319 0.204,-0.334 0.286,-0.337L0.381,-0.34L0.381,-0.364C0.381,-0.419 0.353,-0.447 0.296,-0.447C0.252,-0.447 0.201,-0.434 0.142,-0.407L0.093,-0.508C0.156,-0.541 0.225,-0.557 0.302,-0.557C0.375,-0.557 0.431,-0.541 0.47,-0.509C0.509,-0.477 0.529,-0.429 0.529,-0.364L0.529,-0L0.425,-0ZM0.381,-0.253L0.323,-0.251C0.28,-0.25 0.248,-0.242 0.227,-0.228C0.205,-0.213 0.195,-0.191 0.195,-0.162C0.195,-0.12 0.219,-0.099 0.267,-0.099C0.302,-0.099 0.329,-0.109 0.35,-0.129C0.371,-0.149 0.381,-0.175 0.381,-0.208L0.381,-0.253Z" style="fill:rgb(46,49,146);fill-rule:nonzero;"/>
                    </g>
                    <g transform="matrix(46.0001,0,0,46.0001,121.536,0)">
                        <path d="M0.527,-0L0.475,-0.17L0.215,-0.17L0.163,-0L0,-0L0.252,-0.717L0.437,-0.717L0.69,-0L0.527,-0ZM0.439,-0.297C0.391,-0.451 0.364,-0.538 0.358,-0.558C0.352,-0.578 0.348,-0.594 0.345,-0.606C0.334,-0.564 0.304,-0.461 0.253,-0.297L0.439,-0.297Z" style="fill:rgb(46,49,146);fill-rule:nonzero;"/>
                    </g>
                    <g transform="matrix(46.0001,0,0,46.0001,153.274,0)">
                        <path d="M0.582,-0L0.433,-0L0.433,-0.319C0.433,-0.358 0.426,-0.388 0.412,-0.407C0.398,-0.427 0.376,-0.437 0.345,-0.437C0.304,-0.437 0.273,-0.423 0.255,-0.395C0.236,-0.367 0.227,-0.321 0.227,-0.257L0.227,-0L0.078,-0L0.078,-0.546L0.192,-0.546L0.212,-0.476L0.22,-0.476C0.237,-0.502 0.26,-0.522 0.289,-0.536C0.318,-0.549 0.351,-0.556 0.388,-0.556C0.452,-0.556 0.5,-0.539 0.533,-0.505C0.566,-0.47 0.582,-0.421 0.582,-0.356L0.582,-0Z" style="fill:rgb(46,49,146);fill-rule:nonzero;"/>
                    </g>
                    <g transform="matrix(46.0001,0,0,46.0001,183.506,0)">
                        <path d="M0.425,-0L0.396,-0.074L0.392,-0.074C0.367,-0.043 0.341,-0.021 0.315,-0.009C0.288,0.004 0.254,0.01 0.211,0.01C0.159,0.01 0.117,-0.005 0.087,-0.035C0.057,-0.065 0.042,-0.108 0.042,-0.163C0.042,-0.221 0.062,-0.264 0.103,-0.291C0.143,-0.319 0.204,-0.334 0.286,-0.337L0.381,-0.34L0.381,-0.364C0.381,-0.419 0.353,-0.447 0.296,-0.447C0.252,-0.447 0.201,-0.434 0.142,-0.407L0.093,-0.508C0.156,-0.541 0.225,-0.557 0.302,-0.557C0.375,-0.557 0.431,-0.541 0.47,-0.509C0.509,-0.477 0.529,-0.429 0.529,-0.364L0.529,-0L0.425,-0ZM0.381,-0.253L0.323,-0.251C0.28,-0.25 0.248,-0.242 0.227,-0.228C0.205,-0.213 0.195,-0.191 0.195,-0.162C0.195,-0.12 0.219,-0.099 0.267,-0.099C0.302,-0.099 0.329,-0.109 0.35,-0.129C0.371,-0.149 0.381,-0.175 0.381,-0.208L0.381,-0.253Z" style="fill:rgb(46,49,146);fill-rule:nonzero;"/>
                    </g>
                    <g transform="matrix(46.0001,0,0,46.0001,211.29,0)">
                        <rect x="0.078" y="-0.76" width="0.149" height="0.76" style="fill:rgb(46,49,146);"/>
                    </g>
                    <g transform="matrix(46.0001,0,0,46.0001,225.328,0)">
                        <path d="M0,-0.546L0.163,-0.546L0.266,-0.239C0.275,-0.212 0.281,-0.181 0.284,-0.144L0.287,-0.144C0.291,-0.178 0.298,-0.209 0.308,-0.239L0.409,-0.546L0.569,-0.546L0.338,0.07C0.317,0.127 0.287,0.169 0.247,0.198C0.208,0.226 0.162,0.24 0.11,0.24C0.084,0.24 0.059,0.237 0.034,0.232L0.034,0.114C0.052,0.118 0.072,0.12 0.093,0.12C0.119,0.12 0.142,0.112 0.162,0.096C0.182,0.08 0.197,0.056 0.208,0.023L0.217,-0.004L0,-0.546Z" style="fill:rgb(46,49,146);fill-rule:nonzero;"/>
                    </g>
                    <g transform="matrix(46.0001,0,0,46.0001,251.495,0)">
                        <path d="M0.308,-0.109C0.334,-0.109 0.365,-0.115 0.402,-0.126L0.402,-0.015C0.365,0.001 0.319,0.01 0.265,0.01C0.206,0.01 0.162,-0.005 0.135,-0.035C0.108,-0.066 0.094,-0.111 0.094,-0.171L0.094,-0.434L0.023,-0.434L0.023,-0.497L0.105,-0.547L0.148,-0.662L0.243,-0.662L0.243,-0.546L0.396,-0.546L0.396,-0.434L0.243,-0.434L0.243,-0.171C0.243,-0.15 0.249,-0.134 0.261,-0.124C0.273,-0.114 0.289,-0.109 0.308,-0.109Z" style="fill:rgb(46,49,146);fill-rule:nonzero;"/>
                    </g>
                    <g transform="matrix(46.0001,0,0,46.0001,271.463,0)">
                        <path d="M0.072,-0.687C0.072,-0.736 0.099,-0.76 0.153,-0.76C0.207,-0.76 0.234,-0.736 0.234,-0.687C0.234,-0.664 0.227,-0.646 0.214,-0.633C0.2,-0.62 0.18,-0.614 0.153,-0.614C0.099,-0.614 0.072,-0.638 0.072,-0.687ZM0.227,-0L0.078,-0L0.078,-0.546L0.227,-0.546L0.227,-0Z" style="fill:rgb(46,49,146);fill-rule:nonzero;"/>
                    </g>
                    <g transform="matrix(46.0001,0,0,46.0001,285.501,0)">
                        <path d="M0.3,0.01C0.13,0.01 0.045,-0.083 0.045,-0.27C0.045,-0.363 0.068,-0.434 0.114,-0.483C0.16,-0.532 0.227,-0.556 0.313,-0.556C0.376,-0.556 0.433,-0.544 0.483,-0.519L0.439,-0.404C0.416,-0.413 0.394,-0.421 0.374,-0.427C0.353,-0.433 0.333,-0.436 0.313,-0.436C0.236,-0.436 0.197,-0.381 0.197,-0.271C0.197,-0.164 0.236,-0.111 0.313,-0.111C0.342,-0.111 0.368,-0.115 0.393,-0.122C0.417,-0.13 0.441,-0.142 0.466,-0.158L0.466,-0.031C0.442,-0.015 0.417,-0.005 0.393,0.001C0.368,0.007 0.337,0.01 0.3,0.01Z" style="fill:rgb(46,49,146);fill-rule:nonzero;"/>
                    </g>
                    <g transform="matrix(46.0001,0,0,46.0001,309.153,0)">
                        <path d="M0.459,-0.162C0.459,-0.106 0.44,-0.063 0.401,-0.034C0.362,-0.005 0.304,0.01 0.226,0.01C0.186,0.01 0.153,0.007 0.125,0.002C0.097,-0.004 0.07,-0.012 0.046,-0.022L0.046,-0.145C0.074,-0.132 0.105,-0.121 0.139,-0.112C0.174,-0.104 0.205,-0.099 0.231,-0.099C0.285,-0.099 0.312,-0.115 0.312,-0.146C0.312,-0.158 0.308,-0.167 0.301,-0.175C0.294,-0.182 0.282,-0.19 0.264,-0.199C0.247,-0.209 0.223,-0.22 0.194,-0.232C0.152,-0.25 0.121,-0.266 0.101,-0.281C0.082,-0.296 0.067,-0.313 0.058,-0.332C0.049,-0.352 0.045,-0.375 0.045,-0.404C0.045,-0.452 0.064,-0.49 0.101,-0.516C0.139,-0.543 0.192,-0.556 0.261,-0.556C0.327,-0.556 0.391,-0.542 0.453,-0.513L0.408,-0.406C0.381,-0.417 0.355,-0.427 0.332,-0.435C0.308,-0.442 0.284,-0.446 0.259,-0.446C0.215,-0.446 0.193,-0.434 0.193,-0.41C0.193,-0.397 0.2,-0.385 0.214,-0.375C0.228,-0.366 0.259,-0.351 0.307,-0.332C0.35,-0.315 0.381,-0.299 0.401,-0.284C0.421,-0.269 0.435,-0.251 0.445,-0.232C0.454,-0.212 0.459,-0.189 0.459,-0.162Z" style="fill:rgb(46,49,146);fill-rule:nonzero;"/>
                    </g>
                </g>
            </g>
            <path id="path3" d="M395.607,66.532C394.291,66.532 392.997,66.878 391.857,67.537L319.132,109.523C316.814,110.862 315.381,113.343 315.381,116.02L315.381,199.995C315.381,202.672 316.814,205.154 319.132,206.492L330.371,212.979L330.371,187.487L330.382,187.493L330.382,120.349L395.61,82.69L460.835,120.349L460.835,195.667L441.602,206.771L456.602,215.432L472.087,206.492C474.405,205.154 475.838,202.672 475.838,199.995L475.838,116.02C475.838,113.343 474.405,110.862 472.087,109.523L399.357,67.537C398.217,66.878 396.924,66.532 395.607,66.532ZM345.371,204.321L345.371,221.641L391.857,248.48C394.175,249.818 397.04,249.818 399.357,248.48L441.604,224.089L426.605,215.43L395.609,233.326L345.371,204.321Z" style="fill:rgb(65,64,66);fill-rule:nonzero;"/>
            <path id="path13" d="M308.883,214.557C307.567,214.557 306.274,214.904 305.134,215.562L232.409,257.549C230.091,258.887 228.658,261.368 228.658,264.045L228.658,348.021C228.658,350.697 230.091,353.179 232.409,354.517L305.134,396.505C307.452,397.843 310.316,397.843 312.633,396.505L385.361,354.517C387.679,353.179 389.112,350.697 389.112,348.021L389.112,335.079L366.023,348.409L366.023,348.362L308.886,381.352L243.656,343.692L243.656,268.374L308.886,230.716L330.371,243.12L330.371,225.803L312.633,215.562C311.493,214.904 310.199,214.557 308.883,214.557ZM345.371,234.461L345.371,251.78L374.111,268.374L374.111,326.42L389.112,317.758L389.112,264.045C389.112,261.368 387.679,258.887 385.361,257.549L345.371,234.461Z" style="fill:rgb(46,49,146);fill-rule:nonzero;"/>
            <path id="path15" d="M483.114,214.49C481.798,214.49 480.504,214.836 479.364,215.495L468.038,222.034L483.037,230.694L483.116,230.648L548.341,268.307L548.341,343.625L483.116,381.284L417.888,343.625L417.888,318.467L402.889,327.126L402.889,347.953C402.889,350.63 404.322,353.112 406.641,354.45L479.364,396.438C481.682,397.776 484.547,397.776 486.864,396.438L559.592,354.45C561.911,353.112 563.344,350.63 563.344,347.953L563.344,263.978C563.344,261.301 561.911,258.82 559.592,257.481L486.864,215.495C485.724,214.836 484.431,214.49 483.114,214.49ZM453.041,230.692L406.641,257.481C404.322,258.82 402.889,261.301 402.889,263.978L402.889,309.804L417.888,301.144L417.888,268.307L468.04,239.353L453.041,230.692Z" style="fill:rgb(134,198,121);fill-rule:nonzero;"/>
        </g>
    </g>
</svg>
